PathFileType	4	(X/Y/Z)	11_1_20_p0_0-197.trc
DataRate	CameraRate	NumFrames	NumMarkers	Units	OrigDataRate	OrigDataStartFrame	OrigNumFrames
56.0	56.0	5	27	m	56.0	24	198
Frame#	Time	RHip			RKnee			RAnkle			RBigToe			RSmallToe			RHeel			LHip			LKnee			LAnkle			LBigToe			LSmallToe			LHeel			Neck			Head			Nose			RShoulder			RElbow			RWrist			RThumb			RIndex			RPinky			LShoulder			LElbow			LWrist			LThumb			LIndex			LPinky			
		X1	Y1	Z1	X2	Y2	Z2	X3	Y3	Z3	X4	Y4	Z4	X5	Y5	Z5	X6	Y6	Z6	X7	Y7	Z7	X8	Y8	Z8	X9	Y9	Z9	X10	Y10	Z10	X11	Y11	Z11	X12	Y12	Z12	X13	Y13	Z13	X14	Y14	Z14	X15	Y15	Z15	X16	Y16	Z16	X17	Y17	Z17	X18	Y18	Z18	X19	Y19	Z19	X20	Y20	Z20	X21	Y21	Z21	X22	Y22	Z22	X23	Y23	Z23	X24	Y24	Z24	X25	Y25	Z25	X26	Y26	Z26	X27	Y27	Z27	
24	0.42857142857142855	0.36364958153463023	0.6354050905713015	0.6297127153801583	0.3780535382395208	0.6548988375636587	1.0543407309226782	0.3590614475438948	0.7387874947016838	1.473637062695252	0.3542369260395088	0.526352798284733	1.4478035774803129	0.41063324018952874	0.5497799433536839	1.4416063309889047	0.33349295372652704	0.8287524884915359	1.5535866185765128	0.16369037328991784	0.6123609143689142	0.6316564898886973	0.15711927370979695	0.6543191637954738	1.0656219004590466	0.1871603297303518	0.7097290686702518	1.4493770301388191	0.20663446977902303	0.5272243313655203	1.4508685008600248	0.14577473009827058	0.5683024019534986	1.4454454085062134	0.19435368728482907	0.7797835229939171	1.5138996834318783	0.24958916395307257	0.5763844016131132	0.07480227594874636	0.26658166116419396	0.48270969813115966	-0.17499078139974714	0.2719597752707018	0.46590403993132457	-0.02920017811840789	0.4105984026290419	0.570613058829506	0.1596654576308452	0.46045322800077476	0.5620490377374034	0.40994145785032815	0.41558588346966524	0.3519846519963273	0.5279864085561415	0.3419729857437533	0.2892400464458087	0.5889370246604019	0.3630336645552981	0.2536823640274594	0.5850159791517063	0.37807694245150814	0.2934398046766847	0.6024031322544462	0.11089771084921879	0.579703075584538	0.15235035633459615	0.08576783386564324	0.5131151861517672	0.3953297738684741	0.12178994121842664	0.3193547421388347	0.513872246379009	0.1832393475435443	0.22125760992432425	0.5382393961123929	0.17289108568124417	0.2102018860028469	0.5641987674220706	0.13682404455411212	0.25192349947935216	0.5862565482769576
25	0.44642857142857145	0.36358363628894086	0.6354898310558543	0.6297808256088884	0.37813750166896376	0.6549171737317308	1.0541430704986843	0.35908782639292836	0.738649952325928	1.473456966521239	0.35418778956435043	0.5264808639868017	1.4478365688461918	0.4104651801302885	0.5497983122433481	1.4415807898015578	0.33651934241253195	0.8301103575868879	1.54421872415022	0.16303009626143325	0.6119692145760307	0.6352580424461622	0.15721707048719052	0.6542469368687754	1.0655563945384814	0.18729877401958492	0.7100151644179301	1.449354614933033	0.20662438047100667	0.5270131591712222	1.4508065608372427	0.14588627651576203	0.5685804799312192	1.4455209092587948	0.19451883529646663	0.7804015948223744	1.5142825153120723	0.2534843748527495	0.5784808636994009	0.07478261311751369	0.26663903292547336	0.4826788280129098	-0.1749171106910418	0.2719099132017946	0.4657294692309047	-0.025604853232509227	0.4105582343222223	0.570563612818077	0.1596716856446914	0.4601858722259702	0.56144782613632	0.4017951946968773	0.4193554215006077	0.339610265215455	0.5127660000989016	0.36120391771486765	0.2402828167675294	0.5487011434408564	0.36748239459136695	0.2306321872684361	0.5533662229995673	0.39012194803320455	0.2656866942500545	0.5812144104983739	0.11085604013594112	0.5797290075171125	0.1523418806416734	0.0848228858895438	0.510871385272938	0.38240823955316133	0.1123339361919084	0.30727155119667715	0.4789589138751053	0.18356980380002252	0.21594802291560222	0.514295778005588	0.160889870555007	0.2126772785992673	0.530527256617838	0.12224995378794505	0.26531939004175503	0.5545440289770125
26	0.4642857142857143	0.36846427268376614	0.6228379510183256	0.6383368740034631	0.3787378881979628	0.653434421861436	1.0578231974527847	0.3580570205632611	0.7368815645019201	1.467937020693092	0.3543679222225288	0.5266385881532128	1.4477538880528709	0.41080462275873003	0.5499826198890613	1.4415829259995185	0.33646842734352206	0.8305149774762298	1.5443002108861985	0.1686947689180372	0.5998110192731302	0.6397733446027749	0.15732602867492088	0.6541804740714533	1.0659251011493984	0.18740226042411115	0.7100976526847618	1.449282780011729	0.20209811936394478	0.5242314948401258	1.4495479113486875	0.14597278446173145	0.5685829525831432	1.4453845189335275	0.19472234088667378	0.7807125066826434	1.5143233594734093	0.25366228597016377	0.578657741478252	0.07856435388010057	0.2666456497422711	0.48254689442799353	-0.17488694684035497	0.27195934348111167	0.46548218541156733	-0.02555125167265404	0.40616961611779234	0.5685867514042156	0.15615874598275792	0.45555390582617067	0.5771050018516901	0.4001765419672861	0.41880241272810464	0.3322410815390818	0.4807836818275748	0.3642335236408694	0.2303462219567333	0.5048769296307526	0.3650738578263269	0.2304788549140762	0.512109424425996	0.3786579949580967	0.24603083124590128	0.531063439583715	0.11104162864560517	0.5807750266747821	0.1559060343586062	0.08607646751949297	0.5114275659704841	0.3700310498932523	0.11006014687787603	0.29571240252859976	0.4649445606380184	0.17533630330216485	0.20022151700113935	0.46942209681017005	0.15346924464068512	0.17209883725425337	0.48884280104704386	0.11680826975385178	0.26087874161518204	0.5404568358004712
27	0.48214285714285715	0.36773069777506584	0.6240155287074279	0.6430750987228634	0.37830910784420063	0.6543631692555503	1.0540287719718744	0.35908560805329964	0.7387818022844828	1.4735688182346958	0.3544316937868134	0.5264709346265759	1.4477111416247734	0.4108915883487596	0.5498147730301194	1.4415929026167245	0.3333904862776949	0.8293172850896123	1.554010176638872	0.16872002888866924	0.5995551280253523	0.6400137147671658	0.15729830181818844	0.6540482420852617	1.0660442949223639	0.18734023837029354	0.7094607575566146	1.449117310099003	0.20213110585145888	0.5243179980825285	1.4495155683959382	0.14601797633469507	0.5682022377834515	1.4449575620344652	0.1946196362925009	0.7803079463701157	1.5142084065431607	0.2537003048146068	0.5776544972910991	0.07856892028912633	0.26663331425545195	0.4821463303046302	-0.17490580063169367	0.27355564324163884	0.45680382231930455	-0.026005734459679814	0.4061909536348401	0.5686760135813977	0.15606416308487372	0.46254192105680847	0.5914190779812942	0.3980486550900291	0.42092025373964664	0.33109034128307135	0.4427338050918567	0.36141341936222027	0.22486594747341446	0.4605557311470535	0.3700870810928148	0.21869385481052306	0.4857616033668996	0.39051486948094305	0.25932063457707244	0.5065821682440695	0.11105840579268232	0.5804796854036877	0.1559432742867189	0.08471088030794426	0.5267096062779231	0.3653312674262567	0.10793727324588405	0.29817396764444243	0.43468080708796697	0.14986734239642496	0.18786515514424273	0.4321690200997597	0.14264717985709127	0.14331147694237253	0.4324818052795685	0.11328257754312811	0.2487014078765706	0.4682104882683584
28	0.5	0.3666113991790549	0.6230944574595108	0.6348633807928662	0.3782311865645451	0.6548469392468936	1.0545405978555598	0.363745801038036	0.7405982375332419	1.4741070996383248	0.3588810961449461	0.528424062916701	1.4483894315960437	0.41094951944060765	0.5498971795875759	1.4415819528367526	0.33749958744010533	0.8327934196991637	1.5502926015281768	0.16852650349357354	0.5996813995378193	0.6399961473118021	0.15727976332380403	0.6539883585543844	1.065892696073894	0.18730878405191645	0.7093754506088878	1.4491143720146138	0.20215141241306384	0.5241740665458731	1.4494484896107025	0.14604896346886118	0.5679957553439172	1.4449377401466381	0.19352814892043296	0.781429773507289	1.5202491099527853	0.24979222188025627	0.5755550518090014	0.07882306635787555	0.26664725567708336	0.48199248992646604	-0.17484615262383368	0.2698216928882678	0.4543832455446229	-0.025888645004917905	0.4060825985495718	0.5684639649134595	0.15599401431261903	0.46260230887748316	0.589859751233373	0.390734424374325	0.4213217300596747	0.338990120567967	0.42220351334658607	0.36476163865463873	0.22905804823357478	0.42320271678524335	0.36440204762521533	0.21660106705397258	0.43672354998565355	0.37623622019515696	0.23462439959002487	0.4682759826840673	0.10926328488370247	0.568838492653278	0.1549011989220744	0.08523965987831823	0.5413171622915883	0.3793858220580416	0.11629645821854462	0.28513792725966375	0.39871891908076557	0.15079316731270498	0.164401245222831	0.37881484615179517	0.14304469616087967	0.12122389329981403	0.38332763316250873	0.13702088947325858	0.1824459937847276	0.4398306522432113
